<svg width="103" height="23" viewBox="0 0 103 23" fill="none" xmlns="http://www.w3.org/2000/svg">
<path fill-rule="evenodd" clip-rule="evenodd" d="M5.13153 13.1602L4.13626 15.0336V21.3273H0.91626V0.836362H4.13626V9.76454L8.35153 0.836362H11.5715L7.09281 9.96945L11.5715 21.3273H8.26371L5.13153 13.1602ZM16.1172 16.6144C16.1172 17.3559 16.2684 17.878 16.5709 18.1805C16.8734 18.4829 17.2783 18.6342 17.7857 18.6342C18.2931 18.6342 18.698 18.4829 19.0005 18.1805C19.303 17.878 19.4543 17.3559 19.4543 16.6144V5.54927C19.4543 4.80769 19.303 4.28567 19.0005 3.98318C18.698 3.68069 18.2931 3.52945 17.7857 3.52945C17.2783 3.52945 16.8734 3.68069 16.5709 3.98318C16.2684 4.28567 16.1172 4.80769 16.1172 5.54927V16.6144ZM12.8972 5.75418C12.8972 4.09538 13.3167 2.82203 14.1559 1.93409C14.9951 1.04615 16.205 0.60218 17.7857 0.60218C19.3664 0.60218 20.5764 1.04615 21.4155 1.93409C22.2547 2.82203 22.6743 4.09538 22.6743 5.75418V16.4095C22.6743 18.0682 22.2547 19.3416 21.4155 20.2295C20.5764 21.1175 19.3664 21.5615 17.7857 21.5615C16.205 21.5615 14.9951 21.1175 14.1559 20.2295C13.3167 19.3416 12.8972 18.0682 12.8972 16.4095V5.75418ZM27.9517 6.486V21.3273H25.0537V0.836362H29.0934L32.4012 13.1016V0.836362H35.2699V21.3273H31.9621L27.9517 6.486ZM37.503 5.75418C37.503 4.09538 37.8982 2.82203 38.6885 1.93409C39.4789 1.04615 40.6644 0.60218 42.2452 0.60218C43.8259 0.60218 45.0114 1.04615 45.8018 1.93409C46.5922 2.82203 46.9873 4.09538 46.9873 5.75418V6.39818H43.943V5.54927C43.943 4.80769 43.8015 4.28567 43.5185 3.98318C43.2356 3.68069 42.8404 3.52945 42.333 3.52945C41.8256 3.52945 41.4304 3.68069 41.1474 3.98318C40.8645 4.28567 40.723 4.80769 40.723 5.54927C40.723 6.25182 40.8791 6.87142 41.1913 7.40809C41.5036 7.94476 41.8939 8.45215 42.3623 8.93027C42.8306 9.4084 43.3331 9.88651 43.8698 10.3646C44.4065 10.8428 44.909 11.3648 45.3773 11.9307C45.8457 12.4967 46.236 13.1407 46.5483 13.8627C46.8605 14.5848 47.0166 15.4337 47.0166 16.4095C47.0166 18.0682 46.6117 19.3416 45.8018 20.2295C44.9919 21.1175 43.7966 21.5615 42.2159 21.5615C40.6352 21.5615 39.4399 21.1175 38.63 20.2295C37.8201 19.3416 37.4152 18.0682 37.4152 16.4095V15.1507H40.4595V16.6144C40.4595 17.3559 40.6108 17.8731 40.9133 18.1658C41.2157 18.4585 41.6207 18.6049 42.1281 18.6049C42.6355 18.6049 43.0404 18.4585 43.3429 18.1658C43.6454 17.8731 43.7966 17.3559 43.7966 16.6144C43.7966 15.9118 43.6405 15.2922 43.3283 14.7555C43.016 14.2189 42.6257 13.7115 42.1573 13.2334C41.689 12.7552 41.1865 12.2771 40.6498 11.799C40.1131 11.3209 39.6106 10.7989 39.1423 10.2329C38.6739 9.66697 38.2836 9.02297 37.9714 8.30091C37.6591 7.57884 37.503 6.72994 37.503 5.75418ZM48.2544 0.836362H58.2072V3.76364H54.8408V21.3273H51.6208V3.76364H48.2544V0.836362ZM66.6753 21.3273C66.6363 21.1907 66.5973 21.0638 66.5583 20.9467C66.5192 20.8296 66.4851 20.6833 66.4558 20.5076C66.4265 20.332 66.407 20.1076 66.3973 19.8344C66.3875 19.5611 66.3826 19.2196 66.3826 18.8098V15.5898C66.3826 14.6336 66.2167 13.9603 65.885 13.57C65.5532 13.1797 65.0166 12.9845 64.275 12.9845H63.1626V21.3273H59.9426V0.836362H64.8019C66.4802 0.836362 67.695 1.22666 68.4463 2.00727C69.1977 2.78788 69.5733 3.96854 69.5733 5.54927V7.15927C69.5733 9.26692 68.8708 10.6525 67.4657 11.316C68.2854 11.6478 68.8464 12.1893 69.1489 12.9406C69.4514 13.692 69.6026 14.6043 69.6026 15.6776V18.8391C69.6026 19.3465 69.6221 19.7905 69.6612 20.171C69.7002 20.5515 69.7978 20.937 69.9539 21.3273H66.6753ZM63.1626 3.76363V10.0573H64.4214C65.0263 10.0573 65.4996 9.90115 65.8411 9.58891C66.1826 9.27666 66.3534 8.71073 66.3534 7.89109V5.87127C66.3534 5.12969 66.2216 4.59303 65.9582 4.26127C65.6947 3.92951 65.28 3.76363 64.7141 3.76363H63.1626ZM75.1143 0.836362V16.6436C75.1143 17.3852 75.2655 17.9024 75.568 18.1951C75.8705 18.4878 76.2754 18.6342 76.7828 18.6342C77.2902 18.6342 77.6951 18.4878 77.9976 18.1951C78.3001 17.9024 78.4513 17.3852 78.4513 16.6436V0.836362H81.4957V16.4387C81.4957 18.0975 81.0908 19.3709 80.2809 20.2588C79.471 21.1468 78.2757 21.5907 76.695 21.5907C75.1142 21.5907 73.919 21.1468 73.1091 20.2588C72.2992 19.3709 71.8943 18.0975 71.8943 16.4387V0.836362H75.1143ZM92.8201 0.836362H102.773V3.76364H99.4064V21.3273H96.1864V3.76364H92.8201V0.836362Z" fill="white"/>
<path fill-rule="evenodd" clip-rule="evenodd" d="M83.0254 11.4851L91.389 1.03059V21.9397L83.0254 11.4851Z" fill="#00A4E5"/>
</svg>
